<?xml version="1.0" encoding="UTF-8"?> <svg xmlns="http://www.w3.org/2000/svg" width="310" height="68" viewBox="0 0 310 68" fill="none"><path d="M50.6929 67.04C50.7866 67.04 50.9273 66.9933 51.021 66.9933H51.0679C53.1306 66.618 55.1464 65.8674 57.0215 64.8822L57.1153 64.8352C57.2091 64.7883 57.3497 64.6945 57.4435 64.6476L57.7247 64.5067L57.8654 64.413C64.4753 60.5192 68.46 53.3881 68.3663 45.6942H68.3194C68.3194 45.6003 68.3194 45.5065 68.3194 45.4596C68.3194 41.6127 65.2254 38.5164 61.3813 38.5164C57.5372 38.5164 54.4432 41.6127 54.4432 45.4596C54.4432 45.5534 54.4432 45.6473 54.4432 45.7411C54.4901 46.5856 54.3494 47.4302 54.115 48.2277C53.7869 49.3067 53.2243 50.2917 52.4274 51.0893C52.3805 51.1831 52.2868 51.2302 52.2399 51.2771C52.193 51.324 52.1461 51.3708 52.0992 51.3708C52.0524 51.4177 52.0055 51.4648 51.9586 51.5117C51.9117 51.5586 51.818 51.6055 51.7711 51.6993C51.7242 51.7462 51.6773 51.793 51.6305 51.84C51.5836 51.8869 51.5367 51.9339 51.4429 51.9808C51.3961 52.0277 51.3492 52.0745 51.3023 52.0745C51.2085 52.1214 51.1148 52.2152 51.021 52.2621C50.9273 52.3091 50.8804 52.3561 50.7866 52.403C50.7397 52.4499 50.6929 52.4498 50.646 52.4967C50.5522 52.5436 50.5054 52.5907 50.4116 52.6376L50.271 52.6845C50.1772 52.7315 50.0834 52.7782 50.0366 52.7782L49.8959 52.8252C49.8022 52.8721 49.7084 52.9191 49.6147 52.9191L49.474 52.9658C49.4271 52.9658 49.3803 53.0128 49.2865 53.0128C49.2396 53.0128 49.1459 53.0598 49.099 53.0598H49.0052C47.6926 53.4351 46.2862 53.4351 44.9267 53.0598L44.833 53.0128H44.7861C43.661 52.6375 42.6765 52.0277 41.8327 51.2302L41.7858 51.1832C41.739 51.1363 41.6921 51.0895 41.6452 51.0426C41.5983 50.9956 41.5515 50.9486 41.5046 50.9017L41.4108 50.808C41.3639 50.7611 41.3171 50.6671 41.2233 50.6201L41.1764 50.5734C41.1295 50.4796 41.0358 50.4327 40.9889 50.3388L40.942 50.2449C40.8951 50.1511 40.8483 50.1042 40.8014 50.0104L40.7545 49.9164C40.7076 49.8695 40.6608 49.7757 40.6139 49.7288C40.567 49.6819 40.567 49.6351 40.5201 49.5882C40.4732 49.5413 40.4732 49.4475 40.4264 49.4006C40.3795 49.3537 40.3795 49.3066 40.3326 49.2127C40.2857 49.1658 40.2857 49.119 40.2388 49.0721C40.192 49.0252 40.192 48.9314 40.1451 48.8845C40.1451 48.8376 40.0982 48.7905 40.0982 48.7436C40.0513 48.6498 40.0513 48.6028 40.0044 48.509C40.0044 48.4621 39.9576 48.4153 39.9576 48.3684C39.9107 48.3215 39.9107 48.2277 39.9107 48.1808C39.9107 48.1338 39.8638 48.087 39.8638 47.9931C39.8638 47.9462 39.8638 47.8992 39.8169 47.8523C39.4888 46.6325 39.4888 45.3189 39.77 44.0991C39.77 44.0991 39.77 44.0991 39.77 44.0522C39.77 44.0053 39.8169 43.9585 39.8169 43.9115C40.192 42.5979 40.8951 41.4252 41.8796 40.4869L41.9734 40.393C42.0202 40.3461 42.0671 40.2993 42.114 40.2523C42.1609 40.2054 42.2078 40.1584 42.2546 40.1115L42.3484 40.0178C42.4422 39.9709 42.489 39.8768 42.5828 39.8299L42.6765 39.7362C42.7703 39.6893 42.8172 39.6423 42.9109 39.5954L43.0516 39.5017C43.1453 39.4548 43.1922 39.4077 43.286 39.3608C43.3329 39.3139 43.3797 39.314 43.4266 39.2671C43.5204 39.2202 43.5673 39.1732 43.661 39.1732C43.7548 39.1263 43.8954 39.0794 43.9892 39.0325C44.036 39.0325 44.0829 38.9856 44.1298 38.9856C44.2236 38.9387 44.2704 38.9386 44.3642 38.8916C44.458 38.8447 44.458 38.8449 44.5517 38.8449L44.6923 38.798C44.7861 38.751 44.8799 38.751 44.9736 38.704H45.0205C45.1611 38.6571 45.3018 38.6573 45.3955 38.6103C46.0518 38.4696 46.755 38.4226 47.4582 38.4695H47.5051C47.6457 38.4695 47.7395 38.4695 47.8801 38.5164H48.0208L48.2083 38.5634C48.4896 38.6103 48.7239 38.6572 49.0052 38.751C49.2865 38.7979 49.6147 38.8917 49.8959 38.9856C49.9897 39.0325 50.0366 39.0793 50.1303 39.1262C50.3178 39.22 50.5054 39.267 50.6929 39.3608C50.7398 39.3608 50.7397 39.4077 50.7866 39.4077H50.8335C54.4432 40.6744 58.4279 38.7509 59.6937 35.1385C60.8656 31.7607 59.2717 28.0077 55.9902 26.5064C55.8496 26.4126 55.6621 26.3657 55.5214 26.3188C50.4585 24.1138 44.6923 23.9262 39.4888 25.8966V6.94341C39.4888 3.09646 36.3948 0 32.5507 0C28.7066 0 25.6126 3.09646 25.6126 6.94341V44.8498C25.6126 45.0844 25.6126 45.272 25.6594 45.5066C25.6594 46.7263 25.7063 47.9462 25.8938 49.166C25.8938 49.2129 25.8938 49.2597 25.9407 49.3066C25.9876 49.3536 25.9407 49.4004 25.9876 49.4473C26.3626 51.6992 27.1127 53.9043 28.1909 55.9216L28.2378 56.0153C28.2847 56.1091 28.3316 56.203 28.3784 56.2968C28.4253 56.3906 28.4722 56.4845 28.5191 56.5783L28.566 56.6722C29.7379 58.6895 31.2381 60.4722 32.9726 61.9734L33.0663 62.0673L33.2539 62.208C35.4103 64.0376 37.9418 65.4451 40.6607 66.2896H40.7076L40.9889 66.3833L41.2233 66.4772H41.3171C44.2704 67.2747 47.3176 67.4625 50.3647 66.9933H50.4585L50.6929 67.04Z" fill="url(#paint0_linear_99_88)"></path><path opacity="0.8" d="M24.8625 19.8449L21.4872 12.8078C19.8465 9.33613 15.9555 7.78793 12.8615 9.24226C9.72058 10.7435 8.54859 14.7312 10.1894 18.2029L24.8625 48.9315V19.8449Z" fill="#D90653"></path><path opacity="0.6" d="M15.9555 32.1831L9.01738 26.6004C6.81406 24.5831 3.43878 24.7237 1.42298 26.9286C-0.592823 29.1336 -0.452194 32.5115 1.75112 34.5288C1.93864 34.6695 2.07928 34.8102 2.31368 34.951L26.5033 54.5142L15.9555 32.1831Z" fill="#D90653"></path><path d="M135.56 53.0627C132.381 49.7225 130.633 45.269 130.712 40.6562C130.712 36.0435 132.46 31.6693 135.56 28.329C138.659 24.9091 143.03 23.0002 147.639 23.0002C152.169 23.0002 156.461 24.9887 159.401 28.329C162.58 31.6693 164.328 36.0435 164.328 40.6562C164.408 45.269 162.66 49.802 159.401 53.0627C156.461 56.4826 152.169 58.3915 147.639 58.3915C143.03 58.3915 138.659 56.403 135.56 53.0627ZM138.341 40.6562C138.262 43.3603 139.136 45.9847 140.884 48.1321C142.712 49.8817 145.176 50.7564 147.639 50.7564C150.024 50.7564 152.408 49.8022 154.156 48.1321C155.984 46.0643 156.938 43.4398 156.938 40.6562C157.017 37.9522 155.984 35.3275 154.156 33.3393C152.408 31.6691 150.103 30.7148 147.639 30.6353C145.096 30.6353 142.712 31.5896 140.884 33.3393C139.215 35.3275 138.341 37.9522 138.341 40.6562Z" fill="white"></path><path d="M199.693 37.6339V54.4946C199.693 56.5624 198.104 58.2323 196.038 58.2323C193.971 58.2323 192.382 56.5624 192.302 54.4946V37.6339C192.223 33.6573 188.965 30.4761 184.991 30.4761C181.097 30.4761 177.918 33.6576 177.918 37.475V37.5543V54.4149C177.918 54.6535 177.918 54.8921 177.759 55.1306C177.362 56.8803 175.852 58.153 174.024 58.153C171.958 58.153 170.289 56.4828 170.289 54.4946C170.289 54.4946 170.289 54.4945 170.289 54.4149V26.6588C170.289 24.591 171.958 22.9207 173.945 22.9207C173.945 22.9207 173.945 22.9207 174.024 22.9207C175.534 22.9207 176.806 23.7956 177.441 25.0681C179.667 23.6366 182.289 22.9207 184.912 22.9207C193.097 22.9207 199.614 29.5217 199.693 37.6339Z" fill="white"></path><path d="M233.548 28.8855L217.654 50.7565H230.608C232.674 50.7565 234.343 52.4268 234.343 54.4946C234.343 56.5624 232.674 58.1528 230.608 58.2323H210.263C210.025 58.2323 209.786 58.2326 209.548 58.1531H209.309C209.15 58.0735 209.071 57.9939 208.912 57.9939C208.753 57.9143 208.674 57.9142 208.594 57.8346C208.515 57.8346 208.356 57.6758 208.276 57.6758C208.197 57.5167 208.117 57.5165 208.117 57.437C208.038 57.437 208.038 57.4373 208.038 57.3578C207.958 57.3578 207.879 57.2781 207.799 57.1985C207.72 57.119 207.641 57.0396 207.482 56.9601C207.402 56.801 207.323 56.7212 207.164 56.6417C207.084 56.5621 207.005 56.4032 206.925 56.3236C206.766 56.2441 206.766 56.1646 206.766 56.0056C206.607 55.926 206.528 55.7671 206.528 55.6875C206.448 55.6875 206.448 55.5286 206.369 55.3695C206.369 55.29 206.29 55.1306 206.29 55.0511V54.5742C206.21 54.4946 206.21 54.4149 206.21 54.3354V54.2557C206.21 54.0967 206.29 53.9379 206.29 53.7789V53.4604C206.369 53.3809 206.369 53.2219 206.448 53.1424C206.448 53.0629 206.528 52.9039 206.528 52.8243C206.607 52.8243 206.766 52.5859 206.766 52.5859C206.766 52.4268 206.846 52.347 207.005 52.2675H207.084L222.899 30.3173H210.025C207.958 30.3173 206.29 28.647 206.29 26.5792C206.29 24.5114 207.958 22.9206 210.025 22.8411H230.369C230.528 22.8411 230.687 22.9207 230.767 22.9207H231.085C231.244 23.0002 231.403 23.0004 231.403 23.0799C231.482 23.0799 231.641 23.1595 231.72 23.1595C231.8 23.239 231.879 23.3979 231.959 23.3979C232.118 23.3979 232.277 23.5568 232.356 23.6364C232.356 23.6364 232.436 23.6365 232.436 23.716C232.515 23.716 232.595 23.7957 232.595 23.8752C232.754 23.9547 232.833 24.1137 232.913 24.1932C232.992 24.1932 233.071 24.3522 233.151 24.4317C233.23 24.5112 233.31 24.6706 233.389 24.7501C233.469 24.8296 233.469 24.9089 233.628 24.9089C233.628 25.1475 233.787 25.2271 233.787 25.3066C233.866 25.3861 233.866 25.5451 233.866 25.6246C233.946 25.7837 233.946 25.9431 234.025 25.9431V26.3407C234.025 26.4203 234.105 26.5792 234.105 26.6588V26.7384C234.025 26.8179 234.025 26.9769 234.025 27.0564C234.025 27.295 233.946 27.6131 233.866 27.8517C233.866 28.0108 233.787 28.1698 233.628 28.1698V28.4082C233.787 28.5673 233.707 28.7264 233.548 28.8855Z" fill="white"></path><path d="M287.192 54.3352C287.192 56.4825 285.443 58.2321 283.298 58.2321C283.298 58.2321 283.298 58.2321 283.218 58.2321C281.47 58.1526 279.96 57.0395 279.483 55.3693C279.403 55.0512 279.324 54.7329 279.324 54.4148V12.8203C279.403 10.673 281.152 8.92308 283.298 9.00261C285.364 9.08214 287.112 10.7525 287.112 12.8203V25.068C289.417 23.7955 292.039 23.0796 294.662 23.0001C303.165 23.0001 310 29.9192 310 38.429V54.3352C310 56.4825 308.252 58.2321 306.106 58.2321C303.96 58.2321 302.212 56.4825 302.212 54.3352V38.429C302.291 34.2139 298.953 30.7943 294.741 30.7148C290.529 30.6352 287.112 33.9754 287.033 38.1906C287.033 38.2701 287.033 38.3495 287.033 38.429L287.192 54.3352Z" fill="white"></path><path d="M108.142 22.9208C104.804 22.9208 101.625 23.9548 98.8439 25.784V12.6614C98.6849 10.514 96.7776 8.92343 94.6319 9.08249C92.7245 9.24155 91.2146 10.7526 91.0556 12.6614V26.4201C91.0556 26.5791 91.0556 26.7382 91.0556 26.8177V40.5768H91.1351C91.5325 49.9614 99.4002 57.2783 108.857 56.8806C118.235 56.483 125.546 48.6092 125.149 39.145C124.752 30.0785 117.281 22.9208 108.142 22.9208ZM108.142 50.5181C102.579 50.9158 97.8107 46.7004 97.4928 41.1333C97.0955 35.5661 101.307 30.7943 106.87 30.4762C112.433 30.0786 117.202 34.2939 117.52 39.8611C117.52 40.0997 117.52 40.2586 117.52 40.4972C117.679 45.9053 113.467 50.3591 108.142 50.5181Z" fill="white"></path><path d="M272.807 40.5767C272.33 31.2716 264.383 24.1137 255.165 24.5909C245.866 25.0681 238.714 33.0213 239.191 42.2469C239.668 51.2339 247.058 58.2323 256.039 58.2323C259.377 58.2323 262.555 57.1986 265.337 55.2899C265.893 56.8805 267.403 57.9142 269.072 57.8346C271.138 57.9142 272.887 56.3235 272.966 54.2557L272.807 40.5767ZM256.754 51.4722C251.191 51.8698 246.423 47.7345 246.025 42.2469C245.628 36.6797 249.76 31.9079 255.244 31.5102C260.807 31.1126 265.575 35.2479 265.973 40.7355C265.973 40.9741 265.973 41.213 265.973 41.4516C266.291 46.7802 262.079 51.2336 256.754 51.4722Z" fill="white"></path><defs><linearGradient id="paint0_linear_99_88" x1="28.7829" y1="60.1662" x2="69.46" y2="31.7373" gradientUnits="userSpaceOnUse"><stop stop-color="#881451"></stop><stop offset="0.013" stop-color="#891350"></stop><stop offset="0.265" stop-color="#A6144F"></stop><stop offset="0.516" stop-color="#BB144D"></stop><stop offset="0.763" stop-color="#C7114C"></stop><stop offset="1" stop-color="#CC0F4C"></stop></linearGradient></defs></svg> 