<?xml version="1.0" encoding="UTF-8"?> <svg xmlns="http://www.w3.org/2000/svg" width="343" height="108" viewBox="0 0 343 108" fill="none"><g clip-path="url(#clip0_663_103)"><path d="M81.333 107.487C81.5127 107.456 81.6925 107.424 81.8722 107.39H81.9135C85.2528 106.751 88.4777 105.615 91.4805 104.018L91.6602 103.923C91.8411 103.826 92.0209 103.727 92.1994 103.626L92.6397 103.376L92.8393 103.259C98.0525 100.184 102.36 95.782 105.323 90.4995C108.287 85.217 109.8 79.2428 109.71 73.1844H109.662C109.662 73.0512 109.673 72.918 109.673 72.783C109.673 69.821 108.498 66.9803 106.407 64.8859C104.315 62.7915 101.479 61.6149 98.5214 61.6149C95.5639 61.6149 92.7275 62.7915 90.6362 64.8859C88.5449 66.9803 87.3701 69.821 87.3701 72.783C87.3701 72.9468 87.3701 73.1106 87.3827 73.2726L87.3701 73.2834C87.4158 74.6368 87.2335 75.9883 86.8309 77.2812C86.2883 79 85.3669 80.5748 84.135 81.8892L84.108 81.918C84.0002 82.0314 83.8887 82.1394 83.7773 82.2492C83.7126 82.3104 83.6515 82.3752 83.5868 82.4292C83.5221 82.4832 83.4286 82.5696 83.3496 82.6398C83.2705 82.71 83.1411 82.8198 83.0332 82.9116C82.9542 82.9764 82.8733 83.0394 82.7942 83.1006C82.7151 83.1618 82.6145 83.2446 82.5174 83.313C82.4204 83.3814 82.3557 83.4264 82.273 83.484C82.1232 83.5884 81.9716 83.6892 81.8183 83.7864C81.6997 83.862 81.5792 83.9376 81.4588 84.0078C81.3869 84.0492 81.3132 84.0888 81.2395 84.1284C81.1173 84.1968 80.9951 84.2634 80.8693 84.3264L80.6536 84.4308C80.5206 84.4944 80.3864 84.5544 80.251 84.6108L80.0461 84.699C79.9006 84.7602 79.7514 84.816 79.6022 84.879L79.4081 84.951C79.3164 84.9834 79.2284 85.0122 79.1313 85.041C79.0343 85.0698 78.9228 85.1094 78.8168 85.14L78.6784 85.1778C76.5397 85.7704 74.2788 85.7573 72.1471 85.14L71.9673 85.0878L71.8631 85.0536C70.0823 84.4847 68.4587 83.5071 67.1218 82.1988L67.0679 82.1484C66.9888 82.071 66.9134 81.9882 66.8361 81.9072C66.7588 81.8262 66.7013 81.7686 66.6366 81.6948L66.5054 81.5436C66.4137 81.4374 66.3256 81.3312 66.2322 81.2214L66.1441 81.1116C66.0471 80.9892 65.95 80.8668 65.8584 80.7408L65.7739 80.622C65.6876 80.5014 65.5941 80.379 65.5205 80.262L65.418 80.1018C65.3479 79.992 65.2778 79.8804 65.2113 79.7688C65.1682 79.6968 65.1269 79.623 65.0873 79.551C65.0478 79.479 64.9795 79.3602 64.9291 79.2648C64.8788 79.1694 64.8339 79.0848 64.7872 78.984C64.7404 78.8832 64.7081 78.8238 64.6703 78.7428C64.62 78.633 64.5697 78.5214 64.5212 78.408C64.4906 78.3396 64.46 78.2694 64.4331 78.1992C64.3846 78.0804 64.3396 77.9598 64.2947 77.8392C64.2695 77.769 64.2426 77.7006 64.2174 77.6304C64.1797 77.5242 64.1473 77.4162 64.1132 77.31C64.079 77.2038 64.0539 77.13 64.0287 77.04C64.0035 76.95 63.9928 76.9086 63.9766 76.8438C63.4372 74.8626 63.4137 72.776 63.9083 70.7832C63.9083 70.7688 63.9083 70.7526 63.9191 70.7382C63.9388 70.6572 63.964 70.578 63.9856 70.497C64.5725 68.3804 65.7274 66.4654 67.3249 64.9602L67.4489 64.8432C67.5244 64.7748 67.6035 64.7082 67.6808 64.6416C67.7581 64.575 67.839 64.5048 67.9198 64.4364L68.0708 64.3176C68.199 64.2156 68.329 64.1166 68.4608 64.0206L68.6405 63.8946C68.7604 63.8082 68.8844 63.7248 69.0126 63.6444L69.2121 63.5166C69.3307 63.4428 69.4511 63.3726 69.5715 63.3042C69.6452 63.2628 69.7171 63.2178 69.7926 63.1782C69.9094 63.1152 70.0299 63.0558 70.1521 62.9982C70.3318 62.9082 70.5115 62.823 70.6913 62.7426C70.7703 62.7084 70.8494 62.6724 70.9285 62.6382C71.0417 62.5914 71.1585 62.55 71.2736 62.505C71.3886 62.46 71.4533 62.433 71.5558 62.4006L71.7642 62.3304C71.9152 62.2818 72.0662 62.235 72.2189 62.1918L72.3286 62.1594C72.5371 62.1018 72.7474 62.0496 72.9594 62.0046H72.9702C74.0617 61.7719 75.1802 61.6932 76.2934 61.7706H76.3689C76.5702 61.7862 76.7709 61.8066 76.971 61.8318L77.1759 61.8624L77.4886 61.911C77.9079 61.9837 78.3231 62.0786 78.7323 62.1954C79.2086 62.2991 79.6776 62.4344 80.136 62.6004C80.2654 62.667 80.3966 62.7336 80.5296 62.7966C80.828 62.9352 81.1317 63.0576 81.4283 63.1692C81.4786 63.1944 81.5307 63.2178 81.581 63.2448L81.6691 63.2556C84.3778 64.2042 87.3476 64.0698 89.9598 62.8802C92.572 61.6906 94.6253 59.5377 95.6921 56.8697C96.7588 54.2018 96.7567 51.2245 95.6862 48.558C94.6158 45.8916 92.5595 43.7415 89.9456 42.5556C89.694 42.4386 89.437 42.3342 89.1818 42.237C81.0253 38.6662 71.8016 38.4138 63.4626 41.5332V11.0538C63.4626 8.09157 62.2876 5.25069 60.1962 3.1561C58.1047 1.0615 55.2681 -0.115234 52.3104 -0.115234C49.3526 -0.115234 46.516 1.0615 44.4246 3.1561C42.3332 5.25069 41.1582 8.09157 41.1582 11.0538V72.0054C41.1582 72.351 41.1762 72.6912 41.2049 73.0296C41.1678 75.0092 41.3031 76.9883 41.6093 78.9444C41.6219 79.0308 41.6345 79.1244 41.6489 79.2036C41.6632 79.2828 41.6794 79.3836 41.6938 79.4664C42.3116 83.1028 43.5147 86.6146 45.256 89.865L45.3495 90.045C45.425 90.1842 45.5016 90.3234 45.5795 90.4626C45.6574 90.6018 45.7449 90.756 45.8419 90.9252L45.9156 91.0494C47.792 94.26 50.1804 97.1415 52.9862 99.5796L53.1228 99.7002L53.3941 99.9306C56.8867 102.883 60.9367 105.101 65.303 106.454L65.3677 106.474L65.826 106.61L66.2286 106.727L66.3508 106.76C71.0685 108.071 76.0131 108.35 80.8477 107.575L80.9646 107.557L81.333 107.487Z" fill="url(#paint0_linear_663_103)"></path><path opacity="0.8" d="M39.8787 31.6114L34.4868 20.3038C31.8358 14.7526 25.619 12.2038 20.6009 14.6032C15.5829 17.0026 13.6616 23.4556 16.3126 29.0032L39.8787 78.3862V31.6114Z" fill="#D90052"></path><path opacity="0.6" d="M25.5308 51.4369L14.4146 42.4369C13.5443 41.6341 12.5188 41.0185 11.4015 40.6283C10.2843 40.2381 9.09899 40.0815 7.91893 40.1683C6.73886 40.2551 5.5891 40.5833 4.54074 41.1328C3.49238 41.6823 2.5677 42.4413 1.82385 43.3629C1.08001 44.2845 0.53281 45.349 0.216095 46.4908C-0.100619 47.6326 -0.180127 48.8273 -0.0175061 50.0011C0.145115 51.1749 0.546416 52.3028 1.16157 53.3151C1.77672 54.3274 2.59265 55.2026 3.55893 55.8865L42.3983 87.3379L25.5308 51.4369Z" fill="#D90052"></path><path d="M177.63 80.7893C174.616 77.6249 172.963 73.4013 173.027 69.0281C173.036 64.6869 174.68 60.5088 177.63 57.3281C179.087 55.731 180.86 54.4548 182.836 53.5803C184.812 52.7059 186.947 52.2523 189.108 52.2485C191.22 52.2469 193.308 52.6996 195.23 53.5759C197.153 54.4523 198.865 55.7319 200.251 57.3281C203.274 60.4672 204.952 64.6666 204.924 69.0281C204.974 71.2025 204.587 73.3648 203.784 75.3856C202.981 77.4065 201.779 79.2443 200.251 80.7893C198.865 82.3853 197.152 83.6645 195.23 84.5406C193.308 85.4166 191.22 85.869 189.108 85.8671C186.948 85.8636 184.812 85.4103 182.836 84.5362C180.86 83.6621 179.087 82.3861 177.63 80.7893ZM180.299 69.0281C180.232 71.6004 181.084 74.1122 182.702 76.1111C184.429 77.7482 186.731 78.6369 189.108 78.5843C191.398 78.5976 193.602 77.7095 195.245 76.1111C196.98 74.167 197.91 71.6345 197.848 69.0281C197.898 66.4638 196.967 63.9775 195.245 62.0783C193.575 60.514 191.393 59.6113 189.108 59.5385C186.734 59.5722 184.455 60.4757 182.702 62.0783C181.097 64.0323 180.243 66.4983 180.299 69.0281Z" fill="#1D1E29"></path><path d="M238.408 66.1536V82.125C238.412 82.5858 238.326 83.0431 238.154 83.4705C237.982 83.898 237.728 84.2874 237.405 84.6163C237.083 84.9453 236.699 85.2075 236.276 85.3878C235.852 85.5681 235.397 85.6631 234.937 85.6674C234.005 85.6498 233.116 85.2709 232.456 84.6103C231.797 83.9497 231.419 83.0588 231.402 82.125V66.1536C231.373 64.3378 230.626 62.6077 229.325 61.3425C228.024 60.0772 226.276 59.38 224.463 59.4036C223.581 59.4026 222.707 59.577 221.893 59.9167C221.078 60.2564 220.339 60.7546 219.719 61.3825C219.098 62.0104 218.608 62.7555 218.277 63.5745C217.946 64.3935 217.781 65.2701 217.791 66.1536V82.125C217.806 82.3554 217.76 82.5856 217.658 82.7928C217.483 83.6037 217.037 84.3307 216.394 84.8541C215.751 85.3775 214.95 85.6663 214.121 85.6728C213.656 85.6754 213.195 85.5856 212.764 85.4085C212.334 85.2314 211.943 84.9705 211.614 84.6411C211.285 84.3116 211.025 83.92 210.848 83.4891C210.671 83.0581 210.581 82.5963 210.584 82.1304V55.7964C210.581 55.3304 210.671 54.8686 210.848 54.4376C211.025 54.0067 211.285 53.6151 211.614 53.2857C211.943 52.9562 212.334 52.6954 212.764 52.5183C213.195 52.3412 213.656 52.2513 214.121 52.254C214.806 52.2529 215.477 52.4472 216.056 52.8141C216.635 53.1809 217.098 53.7053 217.39 54.3258C219.506 52.9827 221.958 52.2647 224.463 52.254C228.148 52.2601 231.681 53.7243 234.293 56.3278C236.905 58.9313 238.384 62.463 238.408 66.1536Z" fill="#1D1E29"></path><path d="M270.492 57.8678L255.413 78.584H267.691C268.627 78.5901 269.522 78.9654 270.184 79.6284C270.846 80.2915 271.22 81.1889 271.226 82.1264C271.209 83.0602 270.831 83.9511 270.172 84.6117C269.512 85.2723 268.623 85.6512 267.691 85.6688H248.407C248.183 85.6767 247.959 85.6543 247.741 85.6022H247.539C247.417 85.5281 247.28 85.4826 247.139 85.469C247.006 85.4024 246.939 85.4024 246.872 85.3358C246.806 85.3358 246.673 85.2026 246.605 85.2026C246.538 85.0694 246.472 85.0694 246.472 85.0028C246.405 85.0028 246.405 85.0028 246.405 84.9362C246.339 84.9362 246.272 84.8696 246.206 84.803C246.121 84.731 246.032 84.6643 245.94 84.6032C245.864 84.4815 245.774 84.3691 245.672 84.2684C245.622 84.1676 245.555 84.0768 245.472 84.0002C245.339 83.9336 245.339 83.867 245.339 83.7338C245.273 83.7093 245.217 83.6627 245.18 83.6018C245.144 83.5408 245.13 83.4692 245.14 83.399C245.073 83.399 245.073 83.2658 245.007 83.0642C245.007 82.9976 244.94 82.8644 244.94 82.796V82.328C244.915 82.3017 244.896 82.2702 244.885 82.2356C244.873 82.2011 244.869 82.1643 244.874 82.1282V82.0616C244.874 81.9284 244.94 81.7268 244.94 81.5936V81.3272C245.007 81.2606 245.007 81.1274 245.073 80.9924C245.089 80.8796 245.111 80.7678 245.14 80.6576C245.206 80.6576 245.339 80.4578 245.339 80.4578C245.364 80.3261 245.435 80.2076 245.539 80.123H245.605L260.618 59.3402H248.409C247.473 59.3345 246.576 58.9595 245.914 58.2964C245.252 57.6333 244.878 56.7355 244.872 55.7978C244.89 54.8638 245.268 53.9729 245.927 53.3123C246.587 52.6518 247.477 52.2729 248.409 52.2554H267.692C267.825 52.2554 267.958 52.322 268.093 52.322H268.427C268.56 52.3886 268.693 52.3886 268.762 52.4552C268.874 52.4708 268.986 52.493 269.096 52.5218C269.162 52.5884 269.229 52.7216 269.295 52.7216C269.428 52.7216 269.563 52.8548 269.696 52.9214C269.705 52.9211 269.714 52.9227 269.722 52.9259C269.73 52.9292 269.738 52.9341 269.744 52.9403C269.75 52.9466 269.755 52.954 269.758 52.9622C269.761 52.9704 269.763 52.9792 269.763 52.988C269.797 52.9905 269.83 53.0053 269.854 53.0298C269.878 53.0542 269.893 53.0867 269.896 53.1212C270.024 53.2144 270.137 53.3274 270.23 53.456C270.297 53.456 270.363 53.5892 270.43 53.6558C270.479 53.756 270.547 53.8463 270.629 53.9222C270.696 53.9888 270.696 54.0554 270.829 54.0554C270.829 54.2552 270.962 54.3218 270.962 54.4568C271.022 54.5571 271.046 54.6756 271.028 54.7916C271.095 54.9248 271.095 55.0598 271.161 55.1264V55.5278C271.161 55.5944 271.228 55.7276 271.228 55.7942V55.8608C271.184 55.9671 271.162 56.0807 271.161 56.1956C271.125 56.4417 271.08 56.6867 271.028 56.93C271.03 56.9993 271.012 57.0677 270.977 57.1271C270.941 57.1865 270.889 57.2343 270.827 57.2648V57.4646C270.694 57.5978 270.627 57.7328 270.492 57.7994V57.8678Z" fill="#1D1E29"></path><path d="M321.316 81.9934C321.315 82.4815 321.218 82.9647 321.029 83.4147C320.84 83.8647 320.564 84.2726 320.216 84.6146C319.868 84.9567 319.456 85.2261 319.003 85.4071C318.551 85.5881 318.067 85.6771 317.579 85.669C316.776 85.6473 316 85.3702 315.365 84.8777C314.729 84.3851 314.267 83.7028 314.044 82.9294C313.962 82.6239 313.918 82.3096 313.911 81.9934V42.5734C313.932 41.6039 314.332 40.6813 315.024 40.0032C315.716 39.325 316.646 38.9453 317.614 38.9453C318.583 38.9453 319.513 39.325 320.205 40.0032C320.897 40.6813 321.296 41.6039 321.318 42.5734V54.2014C323.502 52.9767 325.954 52.3108 328.457 52.2628C332.322 52.2757 336.025 53.824 338.752 56.5679C341.479 59.3118 343.007 63.0272 343.002 66.8986V82.0024C343.002 82.9772 342.615 83.9121 341.927 84.6014C341.239 85.2908 340.305 85.678 339.332 85.678C338.359 85.678 337.425 85.2908 336.737 84.6014C336.049 83.9121 335.662 82.9772 335.662 82.0024V66.8842C335.677 65.9314 335.503 64.985 335.149 64.1004C334.795 63.2157 334.269 62.4103 333.602 61.7311C332.934 61.052 332.139 60.5126 331.261 60.1444C330.383 59.7763 329.441 59.5867 328.49 59.5867C327.538 59.5867 326.596 59.7763 325.719 60.1444C324.841 60.5126 324.045 61.052 323.378 61.7311C322.71 62.4103 322.184 63.2157 321.831 64.1004C321.477 64.985 321.303 65.9314 321.318 66.8842L321.316 81.9934Z" fill="#1D1E29"></path><path d="M151.649 52.2106C148.514 52.2111 145.452 53.157 142.862 54.925V42.4798C142.785 41.5505 142.363 40.6841 141.678 40.0525C140.993 39.4209 140.096 39.0703 139.165 39.0703C138.234 39.0703 137.337 39.4209 136.652 40.0525C135.967 40.6841 135.544 41.5505 135.468 42.4798V55.5424H135.493C135.477 55.6762 135.468 55.8108 135.468 55.9456V69.0082H135.549C135.678 72.169 136.732 75.222 138.58 77.7876C140.428 80.3533 142.988 82.3184 145.942 83.4388C148.896 84.5591 152.113 84.7851 155.194 84.0889C158.276 83.3926 161.084 81.8047 163.272 79.5225C165.459 77.2404 166.929 74.3647 167.497 71.2529C168.066 68.1412 167.709 64.9307 166.47 62.0206C165.232 59.1104 163.167 56.6291 160.532 54.8849C157.896 53.1408 154.807 52.2108 151.649 52.2106ZM151.649 78.4348C149.747 78.5597 147.852 78.1091 146.21 77.1415C144.568 76.174 143.254 74.7341 142.439 73.009C141.624 71.2839 141.346 69.3532 141.641 67.4679C141.936 65.5825 142.79 63.8295 144.092 62.4366C145.395 61.0436 147.086 60.0752 148.945 59.6569C150.804 59.2387 152.746 59.39 154.518 60.0913C156.29 60.7925 157.811 62.0113 158.882 63.5892C159.954 65.1672 160.527 67.0314 160.527 68.9398C160.602 71.3767 159.71 73.7439 158.046 75.5234C156.382 77.3029 154.082 78.3498 151.649 78.4348Z" fill="#1D1E29"></path><path d="M307.695 68.9704C307.538 65.846 306.469 62.8365 304.62 60.3146C302.772 57.7926 300.226 55.8691 297.296 54.782C294.367 53.695 291.184 53.4923 288.141 54.199C285.098 54.9057 282.329 56.4908 280.177 58.758C278.025 61.0251 276.583 63.8748 276.032 66.954C275.481 70.0333 275.843 73.2069 277.075 76.0819C278.306 78.9568 280.353 81.4069 282.961 83.1285C285.569 84.8502 288.624 85.7679 291.748 85.768C294.887 85.7669 297.95 84.8027 300.526 83.0051C300.778 83.7314 301.254 84.3591 301.884 84.7982C302.515 85.2373 303.268 85.4653 304.036 85.4495C304.974 85.4815 305.887 85.1393 306.573 84.4981C307.259 83.8569 307.664 82.969 307.697 82.0294V68.9668L307.695 68.9704ZM291.748 78.5338C289.842 78.6775 287.938 78.2427 286.283 77.2863C284.628 76.3299 283.299 74.8962 282.469 73.1722C281.64 71.4481 281.348 69.5138 281.633 67.6213C281.917 65.7289 282.764 63.9662 284.064 62.5632C285.363 61.1601 287.055 60.1817 288.918 59.7557C290.781 59.3296 292.728 59.4756 294.507 60.1747C296.286 60.8737 297.813 62.0934 298.89 63.6746C299.966 65.2557 300.542 67.1251 300.542 69.0389C300.627 71.4655 299.749 73.8271 298.099 75.6066C296.45 77.3862 294.163 78.4387 291.741 78.5338H291.748Z" fill="#1D1E29"></path></g><defs><linearGradient id="paint0_linear_663_103" x1="46.1628" y1="96.3267" x2="111.533" y2="50.6737" gradientUnits="userSpaceOnUse"><stop stop-color="#880F50"></stop><stop offset="0.013" stop-color="#890E4F"></stop><stop offset="0.265" stop-color="#A6084D"></stop><stop offset="0.516" stop-color="#BB034B"></stop><stop offset="0.763" stop-color="#C7004A"></stop><stop offset="1" stop-color="#CC004A"></stop></linearGradient><clipPath id="clip0_663_103"><rect width="343" height="108" fill="white"></rect></clipPath></defs></svg> 